# Blender v2.82 (sub 7) OBJ File: 'Bolt_holder.blend'
# www.blender.org
mtllib Bolt_holder.mtl
o Bolt_Holder
v 0.020000 -0.030000 0.045000
v -0.020000 -0.030000 0.045000
v 0.020000 -0.030000 0.000000
v -0.020000 -0.030000 0.000000
v 0.020000 0.030000 0.045000
v 0.020000 0.030000 0.000000
v -0.020000 0.030000 0.045000
v -0.020000 0.030000 0.000000
v -0.004432 0.019219 0.045000
v -0.004500 0.020000 0.045000
v -0.004432 0.020781 0.045000
v -0.004229 0.021539 0.045000
v -0.001539 0.024229 0.045000
v -0.002250 0.023897 0.045000
v -0.002893 0.023447 0.045000
v 0.003447 -0.017107 0.045000
v 0.002893 -0.016553 0.045000
v 0.002250 -0.016103 0.045000
v -0.003897 0.022250 0.045000
v -0.003447 0.022893 0.045000
v 0.000781 0.024432 0.045000
v -0.000000 0.024500 0.045000
v -0.000781 0.024432 0.045000
v -0.001539 -0.015771 0.045000
v -0.002250 -0.016103 0.045000
v -0.002893 -0.016553 0.045000
v 0.001539 0.024229 0.045000
v 0.002250 0.023897 0.045000
v 0.002893 0.023447 0.045000
v 0.001539 -0.024229 0.045000
v 0.000781 -0.024432 0.045000
v -0.000000 -0.024500 0.045000
v -0.000781 -0.024432 0.045000
v -0.004432 -0.019219 0.045000
v -0.004229 -0.018461 0.045000
v -0.003897 -0.017750 0.045000
v -0.003447 -0.017107 0.045000
v 0.004500 -0.020000 0.045000
v 0.004432 -0.020781 0.045000
v -0.001539 -0.024229 0.045000
v -0.002250 -0.023897 0.045000
v -0.002893 -0.023447 0.045000
v 0.003447 0.022893 0.045000
v 0.003897 0.022250 0.045000
v 0.004229 0.021539 0.045000
v -0.003447 -0.022893 0.045000
v -0.003897 -0.022250 0.045000
v -0.004229 -0.021539 0.045000
v -0.004432 -0.020781 0.045000
v -0.004500 -0.020000 0.045000
v 0.003897 0.017750 0.045000
v 0.003447 0.017107 0.045000
v 0.000781 -0.015568 0.045000
v 0.002893 0.016553 0.045000
v 0.002250 0.016103 0.045000
v 0.001539 0.015771 0.045000
v 0.000781 0.015568 0.045000
v -0.000000 -0.015500 0.045000
v -0.000000 0.015500 0.045000
v -0.000781 -0.015568 0.045000
v -0.000781 0.015568 0.045000
v -0.001539 0.015771 0.045000
v -0.002250 0.016103 0.045000
v -0.002893 0.016553 0.045000
v 0.004432 0.020781 0.045000
v 0.004500 0.020000 0.045000
v 0.004432 0.019219 0.045000
v 0.003897 -0.017750 0.045000
v 0.004229 -0.018461 0.045000
v 0.004432 -0.019219 0.045000
v 0.004229 -0.021539 0.045000
v 0.003897 -0.022250 0.045000
v 0.003447 -0.022893 0.045000
v 0.001539 -0.015771 0.045000
v 0.004229 0.018461 0.045000
v 0.002893 -0.023447 0.045000
v 0.002250 -0.023897 0.045000
v -0.003447 0.017107 0.045000
v -0.003897 0.017750 0.045000
v -0.004229 0.018461 0.045000
v -0.020000 0.030000 0.000000
v 0.020000 0.030000 0.000000
v -0.020000 -0.030000 0.000000
v 0.020000 -0.030000 0.000000
v -0.004500 -0.020000 0.010000
v -0.004432 -0.020781 0.010000
v -0.004229 -0.021539 0.010000
v -0.003897 -0.022250 0.010000
v -0.003447 -0.022893 0.010000
v -0.002893 -0.023447 0.010000
v -0.002250 -0.023897 0.010000
v -0.001539 -0.024229 0.010000
v -0.000781 -0.024432 0.010000
v -0.000000 -0.024500 0.010000
v 0.000781 -0.024432 0.010000
v 0.001539 -0.024229 0.010000
v 0.002250 -0.023897 0.010000
v 0.002893 -0.023447 0.010000
v 0.003447 -0.022893 0.010000
v 0.003897 -0.022250 0.010000
v 0.004229 -0.021539 0.010000
v 0.004432 -0.020781 0.010000
v 0.004500 -0.020000 0.010000
v 0.004432 -0.019219 0.010000
v 0.004229 -0.018461 0.010000
v 0.003897 -0.017750 0.010000
v 0.003447 -0.017107 0.010000
v 0.002893 -0.016553 0.010000
v 0.002250 -0.016103 0.010000
v 0.001539 -0.015771 0.010000
v 0.000781 -0.015568 0.010000
v -0.000000 -0.015500 0.010000
v -0.000781 -0.015568 0.010000
v -0.001539 -0.015771 0.010000
v -0.002250 -0.016103 0.010000
v -0.002893 -0.016553 0.010000
v -0.003447 -0.017107 0.010000
v -0.003897 -0.017750 0.010000
v -0.004229 -0.018461 0.010000
v -0.004432 -0.019219 0.010000
v -0.000000 -0.020000 0.010000
v -0.004500 0.020000 0.010000
v -0.004432 0.019219 0.010000
v -0.004229 0.018461 0.010000
v -0.003897 0.017750 0.010000
v -0.003447 0.017107 0.010000
v -0.002893 0.016553 0.010000
v -0.002250 0.016103 0.010000
v -0.001539 0.015771 0.010000
v -0.000781 0.015568 0.010000
v -0.000000 0.015500 0.010000
v 0.000781 0.015568 0.010000
v 0.001539 0.015771 0.010000
v 0.002250 0.016103 0.010000
v 0.002893 0.016553 0.010000
v 0.003447 0.017107 0.010000
v 0.003897 0.017750 0.010000
v 0.004229 0.018461 0.010000
v 0.004432 0.019219 0.010000
v 0.004500 0.020000 0.010000
v 0.004432 0.020781 0.010000
v 0.004229 0.021539 0.010000
v 0.003897 0.022250 0.010000
v 0.003447 0.022893 0.010000
v 0.002893 0.023447 0.010000
v 0.002250 0.023897 0.010000
v 0.001539 0.024229 0.010000
v 0.000781 0.024432 0.010000
v -0.000000 0.024500 0.010000
v -0.000781 0.024432 0.010000
v -0.001539 0.024229 0.010000
v -0.002250 0.023897 0.010000
v -0.002893 0.023447 0.010000
v -0.003447 0.022893 0.010000
v -0.003897 0.022250 0.010000
v -0.004229 0.021539 0.010000
v -0.004432 0.020781 0.010000
v -0.000000 0.020000 0.010000
vn 0.0000 -1.0000 0.0000
vn 1.0000 0.0000 0.0000
vn 0.0000 1.0000 0.0000
vn -1.0000 0.0000 0.0000
vn 0.0000 0.0000 1.0000
vn 0.0000 0.0000 -1.0000
vn 0.9962 0.0872 0.0000
vn 0.9659 0.2588 0.0000
vn 0.9063 0.4226 0.0000
vn 0.8192 0.5736 0.0000
vn 0.7071 0.7071 0.0000
vn 0.5736 0.8192 0.0000
vn 0.4226 0.9063 0.0000
vn 0.2588 0.9659 0.0000
vn 0.0872 0.9962 0.0000
vn -0.0872 0.9962 0.0000
vn -0.2588 0.9659 0.0000
vn -0.4226 0.9063 0.0000
vn -0.5736 0.8192 0.0000
vn -0.7071 0.7071 0.0000
vn -0.8192 0.5736 0.0000
vn -0.9063 0.4226 0.0000
vn -0.9659 0.2588 0.0000
vn -0.9962 0.0871 0.0000
vn -0.9962 -0.0871 0.0000
vn -0.9659 -0.2588 0.0000
vn -0.9063 -0.4226 0.0000
vn -0.8192 -0.5736 0.0000
vn -0.7071 -0.7071 0.0000
vn -0.5736 -0.8192 0.0000
vn -0.4226 -0.9063 0.0000
vn -0.2588 -0.9659 0.0000
vn -0.0871 -0.9962 0.0000
vn 0.0871 -0.9962 0.0000
vn 0.2588 -0.9659 0.0000
vn 0.4226 -0.9063 0.0000
vn 0.5736 -0.8192 0.0000
vn 0.7071 -0.7071 0.0000
vn 0.8192 -0.5736 0.0000
vn 0.9063 -0.4226 0.0000
vn 0.9659 -0.2588 0.0000
vn 0.9962 -0.0872 0.0000
vn -0.0872 -0.9962 0.0000
vn 0.0872 -0.9962 0.0000
usemtl None
s off
f 1//1 2//1 3//1
f 3//1 2//1 4//1
f 5//2 1//2 6//2
f 6//2 1//2 3//2
f 7//3 5//3 8//3
f 8//3 5//3 6//3
f 2//4 7//4 4//4
f 4//4 7//4 8//4
f 9//5 10//5 7//5
f 7//5 10//5 11//5
f 7//5 11//5 12//5
f 13//5 7//5 14//5
f 14//5 7//5 15//5
f 16//5 5//5 17//5
f 17//5 5//5 18//5
f 12//5 19//5 7//5
f 7//5 19//5 20//5
f 7//5 20//5 15//5
f 21//5 5//5 22//5
f 22//5 5//5 7//5
f 22//5 7//5 23//5
f 23//5 7//5 13//5
f 24//5 7//5 25//5
f 25//5 7//5 26//5
f 21//5 27//5 5//5
f 5//5 27//5 28//5
f 5//5 28//5 29//5
f 30//5 31//5 1//5
f 1//5 31//5 32//5
f 1//5 32//5 2//5
f 2//5 32//5 33//5
f 2//5 34//5 7//5
f 7//5 34//5 35//5
f 35//5 36//5 7//5
f 7//5 36//5 37//5
f 7//5 37//5 26//5
f 38//5 39//5 1//5
f 33//5 40//5 2//5
f 2//5 40//5 41//5
f 2//5 41//5 42//5
f 29//5 43//5 5//5
f 5//5 43//5 44//5
f 5//5 44//5 45//5
f 42//5 46//5 2//5
f 2//5 46//5 47//5
f 2//5 47//5 48//5
f 48//5 49//5 2//5
f 2//5 49//5 50//5
f 2//5 50//5 34//5
f 51//5 52//5 53//5
f 53//5 52//5 54//5
f 53//5 54//5 55//5
f 55//5 56//5 53//5
f 53//5 56//5 57//5
f 53//5 57//5 58//5
f 58//5 57//5 59//5
f 58//5 59//5 60//5
f 60//5 59//5 61//5
f 60//5 61//5 24//5
f 61//5 62//5 24//5
f 24//5 62//5 63//5
f 24//5 63//5 64//5
f 45//5 65//5 5//5
f 5//5 65//5 66//5
f 5//5 66//5 67//5
f 16//5 68//5 5//5
f 5//5 68//5 69//5
f 5//5 69//5 1//5
f 1//5 69//5 70//5
f 1//5 70//5 38//5
f 39//5 71//5 1//5
f 1//5 71//5 72//5
f 1//5 72//5 73//5
f 18//5 5//5 74//5
f 74//5 5//5 67//5
f 74//5 67//5 53//5
f 53//5 67//5 75//5
f 53//5 75//5 51//5
f 73//5 76//5 1//5
f 1//5 76//5 77//5
f 1//5 77//5 30//5
f 64//5 78//5 24//5
f 24//5 78//5 79//5
f 24//5 79//5 7//5
f 7//5 79//5 80//5
f 7//5 80//5 9//5
f 81//6 82//6 83//6
f 83//6 82//6 84//6
f 85//7 50//7 86//7
f 86//7 50//7 49//7
f 86//8 49//8 87//8
f 87//8 49//8 48//8
f 87//9 48//9 88//9
f 88//9 48//9 47//9
f 88//10 47//10 89//10
f 89//10 47//10 46//10
f 89//11 46//11 90//11
f 90//11 46//11 42//11
f 90//12 42//12 91//12
f 91//12 42//12 41//12
f 91//13 41//13 92//13
f 92//13 41//13 40//13
f 92//14 40//14 93//14
f 93//14 40//14 33//14
f 93//15 33//15 94//15
f 94//15 33//15 32//15
f 94//16 32//16 95//16
f 95//16 32//16 31//16
f 95//17 31//17 96//17
f 96//17 31//17 30//17
f 96//18 30//18 97//18
f 97//18 30//18 77//18
f 97//19 77//19 98//19
f 98//19 77//19 76//19
f 98//20 76//20 99//20
f 99//20 76//20 73//20
f 99//21 73//21 100//21
f 100//21 73//21 72//21
f 100//22 72//22 101//22
f 101//22 72//22 71//22
f 101//23 71//23 102//23
f 102//23 71//23 39//23
f 102//24 39//24 103//24
f 103//24 39//24 38//24
f 103//25 38//25 104//25
f 104//25 38//25 70//25
f 104//26 70//26 105//26
f 105//26 70//26 69//26
f 105//27 69//27 106//27
f 106//27 69//27 68//27
f 106//28 68//28 107//28
f 107//28 68//28 16//28
f 107//29 16//29 108//29
f 108//29 16//29 17//29
f 108//30 17//30 109//30
f 109//30 17//30 18//30
f 109//31 18//31 110//31
f 110//31 18//31 74//31
f 110//32 74//32 111//32
f 111//32 74//32 53//32
f 111//33 53//33 112//33
f 112//33 53//33 58//33
f 112//34 58//34 113//34
f 113//34 58//34 60//34
f 113//35 60//35 114//35
f 114//35 60//35 24//35
f 114//36 24//36 115//36
f 115//36 24//36 25//36
f 115//37 25//37 116//37
f 116//37 25//37 26//37
f 116//38 26//38 117//38
f 117//38 26//38 37//38
f 117//39 37//39 118//39
f 118//39 37//39 36//39
f 118//40 36//40 119//40
f 119//40 36//40 35//40
f 119//41 35//41 120//41
f 120//41 35//41 34//41
f 120//42 34//42 85//42
f 85//42 34//42 50//42
f 119//5 120//5 121//5
f 121//5 120//5 85//5
f 121//5 85//5 86//5
f 116//5 117//5 121//5
f 121//5 117//5 118//5
f 121//5 118//5 119//5
f 113//5 114//5 121//5
f 121//5 114//5 115//5
f 121//5 115//5 116//5
f 110//5 111//5 121//5
f 121//5 111//5 112//5
f 121//5 112//5 113//5
f 107//5 108//5 121//5
f 121//5 108//5 109//5
f 121//5 109//5 110//5
f 104//5 105//5 121//5
f 121//5 105//5 106//5
f 121//5 106//5 107//5
f 101//5 102//5 121//5
f 121//5 102//5 103//5
f 121//5 103//5 104//5
f 98//5 99//5 121//5
f 121//5 99//5 100//5
f 121//5 100//5 101//5
f 95//5 96//5 121//5
f 121//5 96//5 97//5
f 121//5 97//5 98//5
f 92//5 93//5 121//5
f 121//5 93//5 94//5
f 121//5 94//5 95//5
f 89//5 90//5 121//5
f 121//5 90//5 91//5
f 121//5 91//5 92//5
f 86//5 87//5 121//5
f 121//5 87//5 88//5
f 121//5 88//5 89//5
f 122//7 10//7 123//7
f 123//7 10//7 9//7
f 123//8 9//8 124//8
f 124//8 9//8 80//8
f 124//9 80//9 125//9
f 125//9 80//9 79//9
f 125//10 79//10 126//10
f 126//10 79//10 78//10
f 126//11 78//11 127//11
f 127//11 78//11 64//11
f 127//12 64//12 128//12
f 128//12 64//12 63//12
f 128//13 63//13 129//13
f 129//13 63//13 62//13
f 129//14 62//14 130//14
f 130//14 62//14 61//14
f 130//15 61//15 131//15
f 131//15 61//15 59//15
f 131//16 59//16 132//16
f 132//16 59//16 57//16
f 132//17 57//17 133//17
f 133//17 57//17 56//17
f 133//18 56//18 134//18
f 134//18 56//18 55//18
f 134//19 55//19 135//19
f 135//19 55//19 54//19
f 135//20 54//20 136//20
f 136//20 54//20 52//20
f 136//21 52//21 137//21
f 137//21 52//21 51//21
f 137//22 51//22 138//22
f 138//22 51//22 75//22
f 138//23 75//23 139//23
f 139//23 75//23 67//23
f 139//24 67//24 140//24
f 140//24 67//24 66//24
f 140//25 66//25 141//25
f 141//25 66//25 65//25
f 141//26 65//26 142//26
f 142//26 65//26 45//26
f 142//27 45//27 143//27
f 143//27 45//27 44//27
f 143//28 44//28 144//28
f 144//28 44//28 43//28
f 144//29 43//29 145//29
f 145//29 43//29 29//29
f 145//30 29//30 146//30
f 146//30 29//30 28//30
f 146//31 28//31 147//31
f 147//31 28//31 27//31
f 147//32 27//32 148//32
f 148//32 27//32 21//32
f 148//43 21//43 149//43
f 149//43 21//43 22//43
f 149//44 22//44 150//44
f 150//44 22//44 23//44
f 150//35 23//35 151//35
f 151//35 23//35 13//35
f 151//36 13//36 152//36
f 152//36 13//36 14//36
f 152//37 14//37 153//37
f 153//37 14//37 15//37
f 153//38 15//38 154//38
f 154//38 15//38 20//38
f 154//39 20//39 155//39
f 155//39 20//39 19//39
f 155//40 19//40 156//40
f 156//40 19//40 12//40
f 156//41 12//41 157//41
f 157//41 12//41 11//41
f 157//42 11//42 122//42
f 122//42 11//42 10//42
f 156//5 157//5 158//5
f 158//5 157//5 122//5
f 158//5 122//5 123//5
f 153//5 154//5 158//5
f 158//5 154//5 155//5
f 158//5 155//5 156//5
f 150//5 151//5 158//5
f 158//5 151//5 152//5
f 158//5 152//5 153//5
f 147//5 148//5 158//5
f 158//5 148//5 149//5
f 158//5 149//5 150//5
f 144//5 145//5 158//5
f 158//5 145//5 146//5
f 158//5 146//5 147//5
f 141//5 142//5 158//5
f 158//5 142//5 143//5
f 158//5 143//5 144//5
f 138//5 139//5 158//5
f 158//5 139//5 140//5
f 158//5 140//5 141//5
f 135//5 136//5 158//5
f 158//5 136//5 137//5
f 158//5 137//5 138//5
f 132//5 133//5 158//5
f 158//5 133//5 134//5
f 158//5 134//5 135//5
f 129//5 130//5 158//5
f 158//5 130//5 131//5
f 158//5 131//5 132//5
f 126//5 127//5 158//5
f 158//5 127//5 128//5
f 158//5 128//5 129//5
f 123//5 124//5 158//5
f 158//5 124//5 125//5
f 158//5 125//5 126//5
