# Blender v2.82 (sub 7) OBJ File: ''
# www.blender.org
mtllib aircraft.mtl
o Aircraft
v 0.000000 -1.665136 3.000000
v 0.000000 -11.665140 3.000000
v 0.000000 -1.665136 0.000000
v 0.000000 -11.665140 0.000000
v -0.200000 -10.903649 0.000000
v -0.200000 -1.665136 0.000000
v -1.663988 0.000000 0.000000
v -0.200000 -6.554759 0.000000
v -0.200000 -11.665140 3.000000
v -0.200000 -11.665140 0.000000
v -0.200000 -1.665136 3.000000
v -1.764562 -0.100574 0.000000
v -1.764562 -0.100574 3.000000
v -0.200000 -6.554759 2.500000
v -1.150000 -9.523655 0.000000
v -1.068992 -7.383655 0.000000
v -1.168992 -6.554759 0.000000
v -1.068992 -7.403655 0.000000
v -0.200000 -10.903649 1.500000
v -1.200000 -10.903649 0.000000
v -1.200000 -9.553655 0.000000
v -1.150000 -9.553655 0.000000
v -1.150000 -10.903649 1.052683
v -1.150000 -10.903649 1.019650
v -1.150000 -10.903649 0.445713
v -1.150000 -10.903649 0.478745
v -1.168992 -7.383655 0.000000
v -1.068992 -7.383655 2.500000
v -1.068992 -7.403655 2.500000
v -1.168992 -8.203654 0.000000
v -1.168992 -7.403655 0.000000
v -1.168992 -7.403655 2.500000
v -1.200000 -9.523655 0.000000
v -1.200000 -8.203654 0.000000
v -1.150000 -9.523655 0.445713
v -1.200000 -9.553655 0.445713
v -1.150000 -9.553655 0.445713
v -1.168992 -6.554759 2.500000
v -1.168992 -7.383655 2.500000
v -1.168992 -8.203654 0.445713
v -1.168992 -8.203654 0.478745
v -1.168992 -8.203654 1.019650
v -1.168992 -8.203654 1.052683
v -1.200000 -8.203654 0.445713
v -1.200000 -9.523655 0.445713
v -1.200000 -10.903649 0.445713
v -4.264628 0.000000 0.000000
v -1.663988 0.000000 3.000000
v -4.164054 -0.100574 0.000000
v -4.164054 -0.100574 3.000000
v -5.728616 -1.665136 0.000000
v -5.929765 -1.665136 0.000000
v -5.728616 -1.665136 3.000000
v -4.264628 0.000000 3.000000
v -5.929765 -1.665136 3.000000
v -1.150000 -8.203654 0.478745
v -1.150000 -8.203654 0.445713
v -1.150000 -9.523655 0.478745
v -1.150000 -9.553655 0.478745
v -1.150000 -9.523655 1.019650
v -1.200000 -9.523655 0.478745
v -1.200000 -9.553655 1.019650
v -1.150000 -9.553655 1.019650
v -1.200000 -9.553655 0.478745
v -1.200000 -10.903649 0.478745
v -1.200000 -8.203654 1.019650
v -1.200000 -8.203654 0.478745
v -1.200000 -9.523655 1.019650
v -1.200000 -10.903649 1.019650
v -1.150000 -8.203654 1.052683
v -1.150000 -8.203654 1.019650
v -1.150000 -9.523655 1.052683
v -1.150000 -9.553655 1.052683
v -1.150000 -9.523655 1.500000
v -1.200000 -9.523655 1.052683
v -1.200000 -9.553655 1.052683
v -1.200000 -9.553655 1.500000
v -1.150000 -9.553655 1.500000
v -1.200000 -10.903649 1.052683
v -1.200000 -8.203654 1.052683
v -1.200000 -8.203654 1.500000
v -1.168992 -8.203654 1.500000
v -1.200000 -9.523655 1.500000
v -1.200000 -10.903649 1.500000
v -0.200000 -8.203654 1.500000
v -0.200000 -8.203654 2.500000
v -1.168992 -8.203654 2.500000
vn 1.0000 0.0000 0.0000
vn 0.0000 0.0000 -1.0000
vn 0.7074 0.7069 0.0000
vn 0.0000 -1.0000 0.0000
vn -1.0000 0.0000 0.0000
vn -0.7071 -0.7071 0.0000
vn 0.0000 1.0000 0.0000
vn 0.7071 -0.7071 0.0000
vn -0.7071 0.7071 0.0000
vn 0.0000 0.0000 1.0000
usemtl None
s off
f 1//1 2//1 3//1
f 2//1 4//1 3//1
f 4//2 5//2 3//2
f 6//2 7//2 3//2
f 8//2 6//2 3//2
f 5//2 8//2 3//2
f 7//3 1//3 3//3
f 2//4 9//4 4//4
f 9//4 10//4 4//4
f 10//2 5//2 4//2
f 8//5 11//5 6//5
f 12//2 7//2 6//2
f 11//6 13//6 6//6
f 13//6 12//6 6//6
f 14//5 11//5 8//5
f 5//2 15//2 8//2
f 16//2 17//2 8//2
f 18//2 16//2 8//2
f 15//2 18//2 8//2
f 17//7 14//7 8//7
f 10//5 19//5 5//5
f 20//2 21//2 5//2
f 21//2 22//2 5//2
f 22//2 15//2 5//2
f 19//4 23//4 5//4
f 23//4 24//4 5//4
f 25//4 20//4 5//4
f 26//4 25//4 5//4
f 24//4 26//4 5//4
f 9//5 19//5 10//5
f 27//2 17//2 16//2
f 28//4 27//4 16//4
f 18//5 29//5 16//5
f 29//5 28//5 16//5
f 30//2 31//2 18//2
f 15//2 30//2 18//2
f 32//7 29//7 18//7
f 31//7 32//7 18//7
f 33//2 34//2 15//2
f 34//2 30//2 15//2
f 35//4 33//4 15//4
f 22//5 35//5 15//5
f 36//7 37//7 22//7
f 21//7 36//7 22//7
f 37//5 35//5 22//5
f 27//5 38//5 17//5
f 38//7 14//7 17//7
f 39//5 38//5 27//5
f 28//4 39//4 27//4
f 30//5 40//5 31//5
f 40//5 41//5 31//5
f 41//5 42//5 31//5
f 42//5 43//5 31//5
f 43//5 32//5 31//5
f 44//7 40//7 30//7
f 34//7 44//7 30//7
f 45//5 44//5 34//5
f 33//5 45//5 34//5
f 35//4 45//4 33//4
f 46//5 36//5 21//5
f 20//5 46//5 21//5
f 25//4 46//4 20//4
f 12//2 47//2 7//2
f 48//3 1//3 7//3
f 47//7 48//7 7//7
f 49//2 47//2 12//2
f 13//4 50//4 12//4
f 50//4 49//4 12//4
f 51//2 52//2 49//2
f 52//2 47//2 49//2
f 50//8 53//8 49//8
f 53//8 51//8 49//8
f 54//7 48//7 47//7
f 52//9 54//9 47//9
f 53//4 55//4 51//4
f 55//4 52//4 51//4
f 55//9 54//9 52//9
f 35//5 56//5 57//5
f 56//4 41//4 57//4
f 41//4 40//4 57//4
f 40//10 35//10 57//10
f 58//5 56//5 35//5
f 37//5 58//5 35//5
f 40//10 45//10 35//10
f 25//5 26//5 37//5
f 26//5 59//5 37//5
f 59//5 58//5 37//5
f 46//10 25//10 37//10
f 36//10 46//10 37//10
f 44//10 45//10 40//10
f 58//2 41//2 56//2
f 60//4 61//4 58//4
f 59//5 60//5 58//5
f 61//2 41//2 58//2
f 62//7 63//7 59//7
f 64//7 62//7 59//7
f 63//5 60//5 59//5
f 26//2 64//2 59//2
f 24//4 65//4 26//4
f 65//2 64//2 26//2
f 66//7 42//7 41//7
f 67//7 66//7 41//7
f 61//2 67//2 41//2
f 68//5 66//5 67//5
f 61//5 68//5 67//5
f 60//4 68//4 61//4
f 69//5 62//5 64//5
f 65//5 69//5 64//5
f 24//4 69//4 65//4
f 60//5 70//5 71//5
f 70//4 43//4 71//4
f 43//4 42//4 71//4
f 42//10 60//10 71//10
f 72//5 70//5 60//5
f 63//5 72//5 60//5
f 42//10 68//10 60//10
f 24//5 73//5 63//5
f 73//5 72//5 63//5
f 69//10 24//10 63//10
f 62//10 69//10 63//10
f 23//5 73//5 24//5
f 66//10 68//10 42//10
f 72//2 43//2 70//2
f 74//4 75//4 72//4
f 73//5 74//5 72//5
f 75//2 43//2 72//2
f 76//7 77//7 73//7
f 77//7 78//7 73//7
f 78//5 74//5 73//5
f 23//2 76//2 73//2
f 19//4 79//4 23//4
f 79//2 76//2 23//2
f 80//7 81//7 43//7
f 81//7 82//7 43//7
f 82//5 32//5 43//5
f 75//2 80//2 43//2
f 75//5 83//5 80//5
f 83//5 81//5 80//5
f 74//4 83//4 75//4
f 79//5 84//5 76//5
f 84//5 77//5 76//5
f 19//4 84//4 79//4
f 19//5 9//5 85//5
f 9//5 86//5 85//5
f 86//4 82//4 85//4
f 82//10 74//10 85//10
f 74//10 19//10 85//10
f 78//10 84//10 19//10
f 74//10 78//10 19//10
f 82//10 83//10 74//10
f 77//10 84//10 78//10
f 87//5 32//5 82//5
f 86//4 87//4 82//4
f 81//10 83//10 82//10
f 86//5 9//5 14//5
f 9//5 11//5 14//5
f 28//10 86//10 14//10
f 39//10 28//10 14//10
f 38//10 39//10 14//10
f 29//10 87//10 86//10
f 28//10 29//10 86//10
f 32//10 87//10 29//10
f 11//10 2//10 1//10
f 13//10 11//10 1//10
f 48//10 13//10 1//10
f 11//10 9//10 2//10
f 50//10 13//10 48//10
f 54//10 50//10 48//10
f 54//10 53//10 50//10
f 55//10 53//10 54//10
