# Blender v2.82 (sub 7) OBJ File: 'Linear_Robot_Track.blend'
# www.blender.org
mtllib Linear_Robot_Track.mtl
o Linear_Robot_Track_Linear_Robot_Track.001
v 2.500000 -0.125000 0.000000
v 2.400000 -0.125000 0.000000
v 2.500000 -0.085000 0.000000
v 2.400000 -0.085000 0.000000
v -2.500000 0.085000 0.000000
v -2.500000 0.125000 0.000000
v -2.400829 0.085000 0.000000
v -2.400829 0.125000 0.000000
v 0.050000 -0.125000 0.000000
v -0.050000 -0.125000 0.000000
v 0.050000 -0.085000 0.000000
v -0.050000 -0.085000 0.000000
v -2.400000 -0.075000 0.150000
v -0.050000 -0.075000 0.150000
v -0.050000 -0.125000 0.150000
v -2.400829 0.125000 0.150000
v -0.050000 0.125000 0.150000
v -0.050000 0.075000 0.150000
v -2.400000 0.075000 0.150000
v -2.400829 -0.125000 0.150000
v 2.400000 0.125000 0.150000
v 2.400000 0.075000 0.150000
v 0.050000 0.125000 0.150000
v 0.050000 0.075000 0.150000
v 2.400000 -0.075000 0.150000
v 2.400000 -0.125000 0.150000
v 0.050000 -0.075000 0.150000
v 0.050000 -0.125000 0.150000
v -2.400000 0.075000 0.100000
v -0.050000 0.075000 0.100000
v 2.400000 0.075000 0.100000
v 0.050000 0.075000 0.100000
v -2.400000 -0.075000 0.100000
v -0.050000 -0.075000 0.100000
v 2.400000 -0.075000 0.100000
v 0.050000 -0.075000 0.100000
v 2.500000 0.083709 0.014760
v 2.500000 0.085000 0.000000
v 2.500000 0.125000 0.000000
v 2.500000 -0.083709 0.014760
v 2.500000 -0.079874 0.029072
v 2.500000 -0.125000 0.200000
v 2.500000 -0.073612 0.042500
v 2.500000 -0.065114 0.054637
v 2.500000 -0.054637 0.065114
v 2.500000 -0.042500 0.073612
v 2.500000 -0.029072 0.079874
v 2.500000 0.014760 0.083709
v 2.500000 0.125000 0.200000
v 2.500000 0.000000 0.085000
v 2.500000 -0.014760 0.083709
v 2.500000 0.029072 0.079874
v 2.500000 0.042500 0.073612
v 2.500000 0.054637 0.065114
v 2.500000 0.065114 0.054637
v 2.500000 0.073612 0.042500
v 2.500000 0.079874 0.029072
v 2.400000 0.125000 0.000000
v -2.500000 0.125000 0.200000
v -0.050000 0.125000 0.000000
v 0.050000 0.125000 0.000000
v -2.500000 -0.083709 0.014760
v -2.500000 -0.085000 0.000000
v -2.500000 -0.125000 0.000000
v -2.500000 0.083709 0.014760
v -2.500000 0.079874 0.029072
v -2.500000 0.073612 0.042500
v -2.500000 0.065114 0.054637
v -2.500000 0.054637 0.065114
v -2.500000 0.042500 0.073612
v -2.500000 -0.014760 0.083709
v -2.500000 -0.029072 0.079874
v -2.500000 -0.125000 0.200000
v -2.500000 -0.042500 0.073612
v -2.500000 -0.054637 0.065114
v -2.500000 -0.065114 0.054637
v -2.500000 -0.073612 0.042500
v -2.500000 -0.079874 0.029072
v -2.500000 0.029072 0.079874
v -2.500000 0.014760 0.083709
v -2.500000 0.000000 0.085000
v -2.400829 -0.125000 0.000000
v 2.400000 -0.083709 0.014760
v 2.400000 -0.073612 0.042500
v 2.400000 -0.079874 0.029072
v 2.400000 0.085000 0.000000
v 2.400000 0.083709 0.014760
v 2.400000 0.079874 0.029072
v 2.400000 0.073612 0.042500
v 2.400000 0.065114 0.054637
v 2.400000 0.054637 0.065114
v 2.400000 0.042500 0.073612
v 2.400000 0.029072 0.079874
v 2.400000 -0.029072 0.079874
v 2.400000 -0.042500 0.073612
v 2.400000 -0.054637 0.065114
v 2.400000 -0.065114 0.054637
v 2.400000 0.014760 0.083709
v 2.400000 0.000000 0.085000
v 2.400000 -0.014760 0.083709
v -2.400829 -0.073612 0.042500
v -2.400829 -0.065114 0.054637
v -2.400829 -0.085000 0.000000
v -2.400829 -0.083709 0.014760
v -2.400829 -0.079874 0.029072
v -2.400829 -0.054637 0.065114
v -2.400829 -0.042500 0.073612
v -2.400829 -0.029072 0.079874
v -2.400829 -0.014760 0.083709
v -2.400829 0.000000 0.085000
v -2.400829 0.014760 0.083709
v -2.400829 0.029072 0.079874
v -2.400829 0.042500 0.073612
v -2.400829 0.054637 0.065114
v -2.400829 0.065114 0.054637
v -2.400829 0.073612 0.042500
v -2.400829 0.079874 0.029072
v -2.400829 0.083709 0.014760
v -0.050000 -0.083709 0.014760
v -0.050000 0.065114 0.054637
v -0.050000 0.054637 0.065114
v -0.050000 0.042500 0.073612
v -0.050000 0.029072 0.079874
v -0.050000 -0.073612 0.042500
v -0.050000 -0.079874 0.029072
v -0.050000 0.085000 0.000000
v -0.050000 0.083709 0.014760
v -0.050000 0.079874 0.029072
v -0.050000 0.073612 0.042500
v -0.050000 0.014760 0.083709
v -0.050000 0.000000 0.085000
v -0.050000 -0.014760 0.083709
v -0.050000 -0.029072 0.079874
v -0.050000 -0.042500 0.073612
v -0.050000 -0.054637 0.065114
v -0.050000 -0.065114 0.054637
v 0.050000 0.083709 0.014760
v 0.050000 0.085000 0.000000
v 0.050000 -0.083709 0.014760
v 0.050000 -0.079874 0.029072
v 0.050000 -0.073612 0.042500
v 0.050000 -0.065114 0.054637
v 0.050000 -0.054637 0.065114
v 0.050000 -0.042500 0.073612
v 0.050000 -0.029072 0.079874
v 0.050000 0.014760 0.083709
v 0.050000 0.000000 0.085000
v 0.050000 -0.014760 0.083709
v 0.050000 0.029072 0.079874
v 0.050000 0.042500 0.073612
v 0.050000 0.054637 0.065114
v 0.050000 0.065114 0.054637
v 0.050000 0.073612 0.042500
v 0.050000 0.079874 0.029072
vn 0.0000 0.0000 -1.0000
vn 0.0000 1.0000 0.0000
vn 0.0000 -1.0000 0.0000
vn 1.0000 0.0000 0.0000
vn -1.0000 0.0000 0.0000
vn 0.0000 0.0000 1.0000
vn 0.0000 0.9962 -0.0872
vn 0.0000 0.9659 -0.2588
vn 0.0000 0.9063 -0.4226
vn 0.0000 0.8192 -0.5736
vn 0.0000 0.7071 -0.7071
vn 0.0000 0.5736 -0.8192
vn 0.0000 0.4226 -0.9063
vn 0.0000 0.2588 -0.9659
vn 0.0000 0.0872 -0.9962
vn 0.0000 -0.0872 -0.9962
vn 0.0000 -0.2588 -0.9659
vn 0.0000 -0.4226 -0.9063
vn 0.0000 -0.5736 -0.8192
vn 0.0000 -0.7071 -0.7071
vn 0.0000 -0.8192 -0.5736
vn 0.0000 -0.9063 -0.4226
vn 0.0000 -0.9659 -0.2588
vn 0.0000 -0.9962 -0.0872
usemtl None
s off
f 1//1 2//1 3//1
f 3//1 2//1 4//1
f 5//1 6//1 7//1
f 7//1 6//1 8//1
f 9//1 10//1 11//1
f 11//1 10//1 12//1
f 13//1 14//1 15//1
f 16//1 17//1 18//1
f 18//1 19//1 16//1
f 16//1 19//1 13//1
f 16//1 13//1 20//1
f 20//1 13//1 15//1
f 21//1 22//1 23//1
f 23//1 22//1 24//1
f 25//1 26//1 27//1
f 27//1 26//1 28//1
f 29//2 19//2 30//2
f 30//2 19//2 18//2
f 22//2 31//2 24//2
f 24//2 31//2 32//2
f 13//3 33//3 14//3
f 14//3 33//3 34//3
f 35//3 25//3 36//3
f 36//3 25//3 27//3
f 34//1 33//1 30//1
f 30//1 33//1 29//1
f 32//1 31//1 36//1
f 36//1 31//1 35//1
f 37//4 38//4 39//4
f 3//4 40//4 1//4
f 1//4 40//4 41//4
f 1//4 41//4 42//4
f 42//4 41//4 43//4
f 42//4 43//4 44//4
f 44//4 45//4 42//4
f 42//4 45//4 46//4
f 42//4 46//4 47//4
f 48//4 49//4 50//4
f 50//4 49//4 42//4
f 50//4 42//4 51//4
f 51//4 42//4 47//4
f 48//4 52//4 49//4
f 49//4 52//4 53//4
f 49//4 53//4 54//4
f 54//4 55//4 49//4
f 49//4 55//4 56//4
f 49//4 56//4 39//4
f 39//4 56//4 57//4
f 39//4 57//4 37//4
f 49//2 39//2 58//2
f 58//2 21//2 49//2
f 49//2 21//2 23//2
f 49//2 23//2 59//2
f 8//2 6//2 16//2
f 16//2 6//2 59//2
f 16//2 59//2 17//2
f 17//2 59//2 23//2
f 17//2 23//2 60//2
f 60//2 23//2 61//2
f 62//5 63//5 64//5
f 5//5 65//5 6//5
f 6//5 65//5 66//5
f 6//5 66//5 59//5
f 59//5 66//5 67//5
f 67//5 68//5 59//5
f 59//5 68//5 69//5
f 59//5 69//5 70//5
f 71//5 72//5 73//5
f 73//5 72//5 74//5
f 73//5 74//5 75//5
f 75//5 76//5 73//5
f 73//5 76//5 77//5
f 73//5 77//5 64//5
f 64//5 77//5 78//5
f 64//5 78//5 62//5
f 70//5 79//5 59//5
f 59//5 79//5 80//5
f 59//5 80//5 73//5
f 73//5 80//5 81//5
f 73//5 81//5 71//5
f 73//3 64//3 82//3
f 82//3 20//3 73//3
f 73//3 20//3 15//3
f 73//3 15//3 42//3
f 2//3 1//3 26//3
f 26//3 1//3 42//3
f 26//3 42//3 28//3
f 28//3 42//3 15//3
f 28//3 15//3 9//3
f 9//3 15//3 10//3
f 59//6 73//6 49//6
f 49//6 73//6 42//6
f 29//5 33//5 19//5
f 19//5 33//5 13//5
f 26//5 25//5 2//5
f 2//5 25//5 35//5
f 83//5 4//5 2//5
f 22//5 21//5 31//5
f 31//5 21//5 58//5
f 35//5 84//5 2//5
f 2//5 84//5 85//5
f 2//5 85//5 83//5
f 86//5 87//5 58//5
f 58//5 87//5 88//5
f 58//5 88//5 31//5
f 31//5 88//5 89//5
f 31//5 89//5 90//5
f 90//5 91//5 31//5
f 31//5 91//5 92//5
f 31//5 92//5 93//5
f 35//5 94//5 95//5
f 95//5 96//5 35//5
f 35//5 96//5 97//5
f 35//5 97//5 84//5
f 93//5 98//5 31//5
f 31//5 98//5 99//5
f 31//5 99//5 35//5
f 35//5 99//5 100//5
f 35//5 100//5 94//5
f 58//1 39//1 86//1
f 86//1 39//1 38//1
f 101//4 102//4 20//4
f 82//4 103//4 104//4
f 82//4 104//4 20//4
f 20//4 104//4 105//4
f 20//4 105//4 101//4
f 102//4 106//4 20//4
f 20//4 106//4 107//4
f 20//4 107//4 108//4
f 108//4 109//4 20//4
f 20//4 109//4 110//4
f 20//4 110//4 16//4
f 16//4 110//4 111//4
f 16//4 111//4 112//4
f 112//4 113//4 16//4
f 16//4 113//4 114//4
f 16//4 114//4 115//4
f 115//4 116//4 16//4
f 16//4 116//4 117//4
f 16//4 117//4 8//4
f 8//4 117//4 118//4
f 8//4 118//4 7//4
f 103//1 82//1 63//1
f 63//1 82//1 64//1
f 15//5 14//5 10//5
f 10//5 14//5 34//5
f 119//5 12//5 10//5
f 18//5 17//5 30//5
f 30//5 17//5 60//5
f 120//5 121//5 30//5
f 30//5 121//5 122//5
f 30//5 122//5 123//5
f 34//5 124//5 10//5
f 10//5 124//5 125//5
f 10//5 125//5 119//5
f 126//5 127//5 60//5
f 60//5 127//5 128//5
f 60//5 128//5 30//5
f 30//5 128//5 129//5
f 30//5 129//5 120//5
f 123//5 130//5 30//5
f 30//5 130//5 131//5
f 30//5 131//5 34//5
f 131//5 132//5 34//5
f 34//5 132//5 133//5
f 34//5 133//5 134//5
f 134//5 135//5 34//5
f 34//5 135//5 136//5
f 34//5 136//5 124//5
f 23//4 24//4 61//4
f 61//4 24//4 32//4
f 137//4 138//4 61//4
f 27//4 28//4 36//4
f 36//4 28//4 9//4
f 11//4 139//4 9//4
f 9//4 139//4 140//4
f 9//4 140//4 36//4
f 36//4 140//4 141//4
f 36//4 141//4 142//4
f 142//4 143//4 36//4
f 36//4 143//4 144//4
f 36//4 144//4 145//4
f 146//4 32//4 147//4
f 147//4 32//4 36//4
f 147//4 36//4 148//4
f 148//4 36//4 145//4
f 146//4 149//4 32//4
f 32//4 149//4 150//4
f 32//4 150//4 151//4
f 151//4 152//4 32//4
f 32//4 152//4 153//4
f 32//4 153//4 61//4
f 61//4 153//4 154//4
f 61//4 154//4 137//4
f 60//1 61//1 126//1
f 126//1 61//1 138//1
f 11//7 12//7 139//7
f 139//7 12//7 119//7
f 139//8 119//8 140//8
f 140//8 119//8 125//8
f 140//9 125//9 141//9
f 141//9 125//9 124//9
f 141//10 124//10 142//10
f 142//10 124//10 136//10
f 142//11 136//11 143//11
f 143//11 136//11 135//11
f 143//12 135//12 144//12
f 144//12 135//12 134//12
f 144//13 134//13 145//13
f 145//13 134//13 133//13
f 145//14 133//14 148//14
f 148//14 133//14 132//14
f 148//15 132//15 147//15
f 147//15 132//15 131//15
f 147//16 131//16 146//16
f 146//16 131//16 130//16
f 146//17 130//17 149//17
f 149//17 130//17 123//17
f 149//18 123//18 150//18
f 150//18 123//18 122//18
f 150//19 122//19 151//19
f 151//19 122//19 121//19
f 151//20 121//20 152//20
f 152//20 121//20 120//20
f 152//21 120//21 153//21
f 153//21 120//21 129//21
f 153//22 129//22 154//22
f 154//22 129//22 128//22
f 154//23 128//23 137//23
f 137//23 128//23 127//23
f 137//24 127//24 138//24
f 138//24 127//24 126//24
f 103//7 63//7 104//7
f 104//7 63//7 62//7
f 104//8 62//8 105//8
f 105//8 62//8 78//8
f 105//9 78//9 101//9
f 101//9 78//9 77//9
f 101//10 77//10 102//10
f 102//10 77//10 76//10
f 102//11 76//11 106//11
f 106//11 76//11 75//11
f 106//12 75//12 107//12
f 107//12 75//12 74//12
f 107//13 74//13 108//13
f 108//13 74//13 72//13
f 108//14 72//14 109//14
f 109//14 72//14 71//14
f 109//15 71//15 110//15
f 110//15 71//15 81//15
f 110//16 81//16 111//16
f 111//16 81//16 80//16
f 111//17 80//17 112//17
f 112//17 80//17 79//17
f 112//18 79//18 113//18
f 113//18 79//18 70//18
f 113//19 70//19 114//19
f 114//19 70//19 69//19
f 114//20 69//20 115//20
f 115//20 69//20 68//20
f 115//21 68//21 116//21
f 116//21 68//21 67//21
f 116//22 67//22 117//22
f 117//22 67//22 66//22
f 117//23 66//23 118//23
f 118//23 66//23 65//23
f 118//24 65//24 7//24
f 7//24 65//24 5//24
f 3//7 4//7 40//7
f 40//7 4//7 83//7
f 40//8 83//8 41//8
f 41//8 83//8 85//8
f 41//9 85//9 43//9
f 43//9 85//9 84//9
f 43//10 84//10 44//10
f 44//10 84//10 97//10
f 44//11 97//11 45//11
f 45//11 97//11 96//11
f 45//12 96//12 46//12
f 46//12 96//12 95//12
f 46//13 95//13 47//13
f 47//13 95//13 94//13
f 47//14 94//14 51//14
f 51//14 94//14 100//14
f 51//15 100//15 50//15
f 50//15 100//15 99//15
f 50//16 99//16 48//16
f 48//16 99//16 98//16
f 48//17 98//17 52//17
f 52//17 98//17 93//17
f 52//18 93//18 53//18
f 53//18 93//18 92//18
f 53//19 92//19 54//19
f 54//19 92//19 91//19
f 54//20 91//20 55//20
f 55//20 91//20 90//20
f 55//21 90//21 56//21
f 56//21 90//21 89//21
f 56//22 89//22 57//22
f 57//22 89//22 88//22
f 57//23 88//23 37//23
f 37//23 88//23 87//23
f 37//24 87//24 38//24
f 38//24 87//24 86//24
